<svg xmlns="http://www.w3.org/2000/svg" version="1.1" xmlns:xlink="http://www.w3.org/1999/xlink" xmlns:svgjs="http://svgjs.dev/svgjs" width="1440" height="560" preserveAspectRatio="none" viewBox="0 0 1440 560"><g mask="url(&quot;#SvgjsMask1000&quot;)" fill="none"><rect width="1440" height="560" x="0" y="0" fill="#0e2a47"></rect><path d="M1029.687,508.938C1065.42,507.247,1096.814,488.629,1116.239,458.589C1137.781,425.276,1151.482,384.062,1133.205,348.852C1113.754,311.38,1071.895,290.854,1029.687,291.85C989.113,292.808,954.681,318.451,934.301,353.548C913.821,388.817,906.347,432.753,927.683,467.511C948.26,501.033,990.397,510.797,1029.687,508.938" fill="rgba(28, 83, 142, 0.4)" class="triangle-float1"></path><path d="M269.44,103.687C292.332,104.405,316.285,96.592,327.572,76.663C338.734,56.953,332.337,32.93,320.422,13.666C309.21,-4.462,290.755,-17.409,269.44,-17.32C248.269,-17.232,229.756,-4.257,219.189,14.088C208.641,32.399,206.959,54.776,217.296,73.207C227.852,92.028,247.872,103.011,269.44,103.687" fill="rgba(28, 83, 142, 0.4)" class="triangle-float2"></path><path d="M1402.479386668657 379.3130680879452L1295.5196059323346 420.37108110789336 1443.537399688605 486.2728488242678z" fill="rgba(28, 83, 142, 0.4)" class="triangle-float2"></path><path d="M169.284,525.353C193.855,525.69,214.12,508.838,226.964,487.889C240.541,465.746,249.547,438.239,236.449,415.809C223.427,393.511,195.096,388.383,169.284,389.115C144.996,389.804,120.374,398.292,108.41,419.441C96.596,440.324,102.328,465.539,114.284,486.341C126.289,507.228,145.195,525.022,169.284,525.353" fill="rgba(28, 83, 142, 0.4)" class="triangle-float2"></path><path d="M1318.9,639.39C1370.978,642.422,1419.256,608.919,1443.015,562.478C1464.968,519.567,1450.331,470.59,1426.768,428.541C1402.504,385.242,1368.408,344.522,1318.9,340.992C1263.672,337.054,1204.855,361.202,1180.631,410.99C1158.249,456.992,1191.03,505.586,1217.523,549.349C1242.61,590.789,1270.54,636.574,1318.9,639.39" fill="rgba(28, 83, 142, 0.4)" class="triangle-float3"></path><path d="M983.9012386939796 171.11320873972394L957.7086233146797 356.20327459050736 1110.2648782767735 297.6424149908662z" fill="rgba(28, 83, 142, 0.4)" class="triangle-float2"></path></g><defs><mask id="SvgjsMask1000"><rect width="1440" height="560" fill="#ffffff"></rect></mask><style>
                @keyframes float1 {
                    0%{transform: translate(0, 0)}
                    50%{transform: translate(-10px, 0)}
                    100%{transform: translate(0, 0)}
                }

                .triangle-float1 {
                    animation: float1 5s infinite;
                }

                @keyframes float2 {
                    0%{transform: translate(0, 0)}
                    50%{transform: translate(-5px, -5px)}
                    100%{transform: translate(0, 0)}
                }

                .triangle-float2 {
                    animation: float2 4s infinite;
                }

                @keyframes float3 {
                    0%{transform: translate(0, 0)}
                    50%{transform: translate(0, -10px)}
                    100%{transform: translate(0, 0)}
                }

                .triangle-float3 {
                    animation: float3 6s infinite;
                }
            </style></defs></svg>