<svg xmlns="http://www.w3.org/2000/svg" version="1.1" xmlns:xlink="http://www.w3.org/1999/xlink" xmlns:svgjs="http://svgjs.dev/svgjs" width="1440" height="560" preserveAspectRatio="none" viewBox="0 0 1440 560"><g mask="url(&quot;#SvgjsMask1003&quot;)" fill="none"><rect width="1440" height="560" x="0" y="0" fill="rgba(248, 249, 251, 1)"></rect><path d="M172 57L171 346" stroke-width="10" stroke="url(&quot;#SvgjsLinearGradient1004&quot;)" stroke-linecap="round" class="Up"></path><path d="M177 41L176 -222" stroke-width="6" stroke="url(&quot;#SvgjsLinearGradient1005&quot;)" stroke-linecap="round" class="Down"></path><path d="M1292 87L1291 -56" stroke-width="8" stroke="url(&quot;#SvgjsLinearGradient1004&quot;)" stroke-linecap="round" class="Up"></path><path d="M804 140L803 -242" stroke-width="8" stroke="url(&quot;#SvgjsLinearGradient1004&quot;)" stroke-linecap="round" class="Up"></path><path d="M744 1L743 393" stroke-width="6" stroke="url(&quot;#SvgjsLinearGradient1004&quot;)" stroke-linecap="round" class="Up"></path><path d="M1363 302L1362 484" stroke-width="8" stroke="url(&quot;#SvgjsLinearGradient1005&quot;)" stroke-linecap="round" class="Down"></path><path d="M1007 358L1006 -23" stroke-width="10" stroke="url(&quot;#SvgjsLinearGradient1004&quot;)" stroke-linecap="round" class="Up"></path><path d="M1265 315L1264 144" stroke-width="10" stroke="url(&quot;#SvgjsLinearGradient1005&quot;)" stroke-linecap="round" class="Down"></path><path d="M1052 129L1051 -236" stroke-width="8" stroke="url(&quot;#SvgjsLinearGradient1004&quot;)" stroke-linecap="round" class="Up"></path><path d="M1317 112L1316 -252" stroke-width="8" stroke="url(&quot;#SvgjsLinearGradient1005&quot;)" stroke-linecap="round" class="Down"></path><path d="M654 221L653 586" stroke-width="10" stroke="url(&quot;#SvgjsLinearGradient1005&quot;)" stroke-linecap="round" class="Down"></path><path d="M1193 481L1192 194" stroke-width="6" stroke="url(&quot;#SvgjsLinearGradient1005&quot;)" stroke-linecap="round" class="Down"></path><path d="M1166 314L1165 474" stroke-width="6" stroke="url(&quot;#SvgjsLinearGradient1004&quot;)" stroke-linecap="round" class="Up"></path><path d="M1165 75L1164 -170" stroke-width="10" stroke="url(&quot;#SvgjsLinearGradient1005&quot;)" stroke-linecap="round" class="Down"></path><path d="M1065 454L1064 812" stroke-width="6" stroke="url(&quot;#SvgjsLinearGradient1004&quot;)" stroke-linecap="round" class="Up"></path><path d="M388 437L387 155" stroke-width="10" stroke="url(&quot;#SvgjsLinearGradient1004&quot;)" stroke-linecap="round" class="Up"></path><path d="M273 365L272 589" stroke-width="10" stroke="url(&quot;#SvgjsLinearGradient1005&quot;)" stroke-linecap="round" class="Down"></path><path d="M723 274L722 641" stroke-width="8" stroke="url(&quot;#SvgjsLinearGradient1004&quot;)" stroke-linecap="round" class="Up"></path><path d="M1189 526L1188 880" stroke-width="6" stroke="url(&quot;#SvgjsLinearGradient1005&quot;)" stroke-linecap="round" class="Down"></path><path d="M1186 504L1185 773" stroke-width="6" stroke="url(&quot;#SvgjsLinearGradient1005&quot;)" stroke-linecap="round" class="Down"></path><path d="M428 98L427 -249" stroke-width="6" stroke="url(&quot;#SvgjsLinearGradient1005&quot;)" stroke-linecap="round" class="Down"></path><path d="M6 358L5 102" stroke-width="6" stroke="url(&quot;#SvgjsLinearGradient1004&quot;)" stroke-linecap="round" class="Up"></path><path d="M203 15L202 -186" stroke-width="10" stroke="url(&quot;#SvgjsLinearGradient1004&quot;)" stroke-linecap="round" class="Up"></path><path d="M1316 138L1315 -63" stroke-width="10" stroke="url(&quot;#SvgjsLinearGradient1005&quot;)" stroke-linecap="round" class="Down"></path><path d="M1384 312L1383 101" stroke-width="10" stroke="url(&quot;#SvgjsLinearGradient1005&quot;)" stroke-linecap="round" class="Down"></path><path d="M911 443L910 788" stroke-width="8" stroke="url(&quot;#SvgjsLinearGradient1005&quot;)" stroke-linecap="round" class="Down"></path><path d="M923 410L922 124" stroke-width="8" stroke="url(&quot;#SvgjsLinearGradient1005&quot;)" stroke-linecap="round" class="Down"></path><path d="M883 311L882 -24" stroke-width="6" stroke="url(&quot;#SvgjsLinearGradient1004&quot;)" stroke-linecap="round" class="Up"></path><path d="M669 26L668 -115" stroke-width="8" stroke="url(&quot;#SvgjsLinearGradient1004&quot;)" stroke-linecap="round" class="Up"></path><path d="M1362 213L1361 -140" stroke-width="8" stroke="url(&quot;#SvgjsLinearGradient1004&quot;)" stroke-linecap="round" class="Up"></path><path d="M1191 146L1190 298" stroke-width="6" stroke="url(&quot;#SvgjsLinearGradient1004&quot;)" stroke-linecap="round" class="Up"></path><path d="M962 145L961 -140" stroke-width="8" stroke="url(&quot;#SvgjsLinearGradient1005&quot;)" stroke-linecap="round" class="Down"></path><path d="M294 358L293 106" stroke-width="8" stroke="url(&quot;#SvgjsLinearGradient1004&quot;)" stroke-linecap="round" class="Up"></path><path d="M823 180L822 30" stroke-width="10" stroke="url(&quot;#SvgjsLinearGradient1005&quot;)" stroke-linecap="round" class="Down"></path><path d="M1149 544L1148 204" stroke-width="6" stroke="url(&quot;#SvgjsLinearGradient1005&quot;)" stroke-linecap="round" class="Down"></path><path d="M624 34L623 355" stroke-width="6" stroke="url(&quot;#SvgjsLinearGradient1004&quot;)" stroke-linecap="round" class="Up"></path></g><defs><mask id="SvgjsMask1003"><rect width="1440" height="560" fill="#ffffff"></rect></mask><linearGradient x1="0%" y1="100%" x2="0%" y2="0%" id="SvgjsLinearGradient1004"><stop stop-color="rgba(28, 83, 142, 0)" offset="0"></stop><stop stop-color="#1c538e" offset="1"></stop></linearGradient><linearGradient x1="0%" y1="0%" x2="0%" y2="100%" id="SvgjsLinearGradient1005"><stop stop-color="rgba(28, 83, 142, 0)" offset="0"></stop><stop stop-color="#1c538e" offset="1"></stop></linearGradient></defs></svg>