<svg xmlns="http://www.w3.org/2000/svg" version="1.1" xmlns:xlink="http://www.w3.org/1999/xlink" xmlns:svgjs="http://svgjs.dev/svgjs" width="1440" height="250" preserveAspectRatio="none" viewBox="0 0 1440 250"><g mask="url(&quot;#SvgjsMask1012&quot;)" fill="none"><rect width="1440" height="250" x="0" y="0" fill="rgba(170, 179, 229, 1)"></rect><path d="M2 250L252 0L289.5 0L39.5 250z" fill="url(&quot;#SvgjsLinearGradient1013&quot;)"></path><path d="M267.6 250L517.6 0L763.6 0L513.6 250z" fill="url(&quot;#SvgjsLinearGradient1013&quot;)"></path><path d="M490.20000000000005 250L740.2 0L819.7 0L569.7 250z" fill="url(&quot;#SvgjsLinearGradient1013&quot;)"></path><path d="M724.8000000000001 250L974.8000000000001 0L1154.8000000000002 0L904.8000000000001 250z" fill="url(&quot;#SvgjsLinearGradient1013&quot;)"></path><path d="M1427 250L1177 0L920.5 0L1170.5 250z" fill="url(&quot;#SvgjsLinearGradient1014&quot;)"></path><path d="M1164.4 250L914.4000000000001 0L842.4000000000001 0L1092.4 250z" fill="url(&quot;#SvgjsLinearGradient1014&quot;)"></path><path d="M929.8 250L679.8 0L609.3 0L859.3 250z" fill="url(&quot;#SvgjsLinearGradient1014&quot;)"></path><path d="M719.1999999999999 250L469.19999999999993 0L259.19999999999993 0L509.19999999999993 250z" fill="url(&quot;#SvgjsLinearGradient1014&quot;)"></path><path d="M1229.76583395419 250L1440 39.76583395418996L1440 250z" fill="url(&quot;#SvgjsLinearGradient1013&quot;)"></path><path d="M0 250L210.23416604581004 250L 0 39.76583395418996z" fill="url(&quot;#SvgjsLinearGradient1014&quot;)"></path></g><defs><mask id="SvgjsMask1012"><rect width="1440" height="250" fill="#ffffff"></rect></mask><linearGradient x1="0%" y1="100%" x2="100%" y2="0%" id="SvgjsLinearGradient1013"><stop stop-color="rgba(15, 70, 185, 0.2)" offset="0"></stop><stop stop-opacity="0" stop-color="rgba(15, 70, 185, 0.2)" offset="0.66"></stop></linearGradient><linearGradient x1="100%" y1="100%" x2="0%" y2="0%" id="SvgjsLinearGradient1014"><stop stop-color="rgba(15, 70, 185, 0.2)" offset="0"></stop><stop stop-opacity="0" stop-color="rgba(15, 70, 185, 0.2)" offset="0.66"></stop></linearGradient></defs></svg>